<svg width="1068" height="520" viewBox="0 0 1068 520" fill="none" xmlns="http://www.w3.org/2000/svg">
<path fill-rule="evenodd" clip-rule="evenodd" d="M201.58 127.101C201.58 212.249 246.252 254.202 301.54 254.202C354.11 254.202 383.724 206.812 383.724 173.25C383.724 161.894 380.513 159.925 377.548 159.925C373.363 159.925 370.479 164.3 366.707 170.021C359.579 180.832 349.28 196.452 321.04 196.452C286.728 196.452 252.92 164.613 238.107 119.203C236.631 114.269 235.4 105.386 243.298 105.386C252.07 105.386 260.162 113.577 269.417 122.944C281.775 135.452 296.205 150.058 317.091 150.058C347.443 150.058 359.29 125.132 359.29 108.597C359.29 100.699 357.064 94.5232 353.115 94.5232C351.529 94.5232 350.191 95.8982 348.526 97.6087C345.787 100.423 342.165 104.144 335.103 104.144C326.049 104.144 316.45 99.6715 306.281 94.9324C294.825 89.5938 282.644 83.9174 269.701 83.9174C255.804 83.9174 248.425 89.0558 243.006 92.8295C239.862 95.0193 237.377 96.7495 234.662 96.7495C228.927 96.7495 229.581 79.406 229.876 71.5686V71.5684V71.5681V71.5679V71.5676V71.5674V71.5671V71.5669V71.5666V71.5664V71.5661V71.5659V71.5658V71.5656C229.924 70.2913 229.963 69.2686 229.963 68.6129C229.963 59.4839 233.666 38.7535 250.201 38.7535C264.986 38.7535 276.365 45.0414 288.635 51.8224C302.994 59.7571 318.574 68.3668 342.263 68.3668C360.029 68.3668 371.876 47.3903 376.81 35.7888C383.724 19.7459 387.181 0 377.548 0C374.477 0 371.844 1.59113 368.691 3.49624C363.988 6.33807 358.129 9.87856 347.935 9.87856C336.277 9.87856 326.613 7.21553 317.319 4.65481C308.714 2.28354 300.427 0 291.17 0C230.466 0 201.58 65.8944 201.58 127.101ZM12.8172 32.8241C12.8172 18.7614 10.837 10.3708 4.18042 3.70306H79.9422C155.212 3.70306 186.067 95.9999 186.067 158.202C186.067 231.492 157.438 250.499 109.063 250.499H4.18042C10.837 243.832 12.8172 235.441 12.8172 221.378V32.8241ZM121.403 127.593C121.403 79.9683 119.434 17.7658 96.7234 17.7658C81.4189 17.7658 76.9775 34.3121 76.9775 77.7419V127.101V176.46C76.9775 219.902 81.4189 237.913 95.2467 237.913C113.997 237.913 121.403 200.156 121.403 127.593ZM580.417 515.948H663.093C656.425 509.28 654.456 500.89 654.456 486.827V298.273C654.456 296.358 654.493 294.549 654.573 292.835C659.054 295.332 663.952 296.833 669.117 296.833C671.781 296.833 677.32 296.257 678.761 295.395V272.943C675.306 276.398 669.335 279.204 662.57 279.204C660.717 279.204 658.858 279.003 657.025 278.623C658.369 274.981 660.326 271.918 663.093 269.152H662.939C664.475 268.593 665.572 267.121 665.572 265.391V264.466C674.031 261.385 680.488 254.499 680.488 244.019C680.488 229.555 669.839 222.072 655.447 222.072C655.019 222.072 654.59 222.073 654.162 222.075C654.161 221.845 654.16 221.612 654.16 221.378V32.8241C654.16 18.7614 656.129 10.3708 662.797 3.70306H580.122C586.778 10.3708 588.758 18.7614 588.758 32.8241V221.378C588.758 222.079 588.753 222.765 588.743 223.438H585.227C586.439 224.861 587.559 226.308 588.591 227.779C587.998 238.056 585.726 244.836 580.213 250.407C578.172 250.589 576.572 252.303 576.572 254.391V265.391C576.572 267.601 578.363 269.391 580.572 269.391H580.654C583.104 271.903 584.903 274.662 586.193 277.877C583.04 279.297 579.435 280.069 575.584 280.069C571.013 280.069 566.707 278.988 563.076 277.016C563.417 270.118 561.617 265.449 557.103 265.449C555.865 265.449 554.699 265.707 553.54 266.14C552.81 264.077 552.413 261.826 552.413 259.416C552.413 246.032 556.443 234.089 565.439 223.438H545.558C561.172 205.529 568.298 182.243 568.298 160.418C568.298 122.414 540.162 95.0154 498.701 91.0663C461.435 87.6093 414.795 82.6756 414.795 56.027C414.795 46.6407 422.19 38.7535 431.33 38.7535C447.482 38.7535 461.16 45.8179 475.155 53.0458C489.814 60.6166 504.82 68.3668 523.38 68.3668C553.486 68.3668 575.951 0 558.677 0C555.606 0 552.971 1.59109 549.816 3.49617L549.816 3.49624C545.11 6.33808 539.246 9.87856 529.053 9.87856C517.393 9.87856 507.728 7.21479 498.435 4.65373C489.832 2.28285 481.549 0 472.298 0C430.826 0 396.033 33.5625 396.033 75.0234C396.033 127.101 437.986 141.913 486.853 156.961C511.287 164.613 533.248 176.46 533.248 201.632C533.248 212.367 527.817 221.602 519.668 227.609C514.194 224.054 507.315 222 499.105 222C489.674 222 481.988 224.71 476.168 229.293C460.812 218.184 463.996 192.888 466.615 173.25C467.846 163.874 461.435 158.941 454.029 158.695C441.197 158.202 394.31 182.636 394.31 197.437C394.31 206.581 397.651 215.49 403.483 223.438H386C393.051 226.82 402.549 237.397 420.034 265.677C418.957 276.544 415.071 286.474 407.658 295.395H409.938C400.256 307.941 394.459 323.549 394.459 340.472C394.459 392.55 436.412 407.362 485.279 422.409C509.713 430.062 531.674 441.909 531.674 467.081C531.674 486.089 514.646 500.398 495.65 500.398C457.143 500.398 461.584 464.62 465.041 438.698C466.272 429.323 459.861 424.39 452.455 424.144C439.623 423.651 392.736 448.085 392.736 462.886C392.736 492.499 427.775 519.651 468.99 519.651C537.849 519.651 566.724 469.8 566.724 425.866C566.724 387.862 538.588 360.464 497.127 356.515C459.861 353.058 413.22 348.124 413.22 321.476C413.22 312.09 420.615 304.202 429.756 304.202C445.908 304.202 459.586 311.267 473.581 318.495C488.239 326.065 503.246 333.816 521.806 333.816C538.583 333.816 552.986 312.586 559.463 293.787C563.505 295.716 568.867 296.833 575.945 296.833C581.239 296.833 585.535 296.143 589.012 294.912C589.041 295.995 589.054 297.115 589.054 298.273V486.827C589.054 500.89 587.074 509.28 580.417 515.948ZM603.073 269.391V270.14C603.073 280.757 600.564 290.823 589.012 294.912C588.829 287.921 588.024 282.44 586.193 277.877C590.265 276.042 593.582 273.124 595.698 269.391H603.073ZM603.073 269.152V269.391H620.145C619.811 280.489 618.525 289.574 613.711 295.395H645.946C638.851 290.504 630.63 281.715 626.926 269.391H633.642C638.031 278.503 645.434 287.741 654.573 292.835C654.836 287.182 655.571 282.564 657.025 278.623C650.73 277.32 644.753 273.918 640.461 269.391H661.572C662.052 269.391 662.512 269.307 662.939 269.152H640.237C637.783 266.505 635.904 263.485 634.865 260.282C640.551 264.741 647.53 266.325 654.728 266.325C658.473 266.325 662.183 265.701 665.572 264.466V254.391C665.572 252.927 664.785 251.647 663.612 250.95C663.637 250.636 663.65 250.316 663.65 249.991C663.65 245.615 661.382 242.064 656.467 240.287C654.823 235.439 654.198 229.577 654.162 222.075C647.655 222.114 641.148 222.433 634.633 222.753C627.671 223.095 620.7 223.438 613.711 223.438C618.662 229.424 619.882 238.862 620.172 250.391H603.161C603.456 238.862 604.698 229.424 609.764 223.438H588.743C588.72 224.951 588.671 226.397 588.591 227.779C593.5 234.773 596.407 242.298 597.605 250.391H580.572C580.451 250.391 580.331 250.397 580.213 250.407L580.122 250.499H597.621C598.045 253.398 598.25 256.37 598.25 259.416C598.25 263.042 597.381 266.325 595.832 269.152H580.417C580.497 269.231 580.576 269.311 580.654 269.391H595.698C595.743 269.312 595.788 269.232 595.832 269.152H603.073ZM603.159 250.499L603.161 250.391H597.605L597.621 250.499H603.159ZM620.174 250.499C620.173 250.463 620.172 250.427 620.172 250.391H624.935V250.499H620.174ZM662.498 250.499C662.201 250.429 661.891 250.391 661.572 250.391H624.935V239.989C628.027 239.989 631.433 239.785 635.063 239.567C639.209 239.319 643.648 239.053 648.249 239.053C651.541 239.053 654.269 239.493 656.467 240.287C657.814 244.257 659.845 247.547 662.797 250.499H662.498ZM662.498 250.499H624.935V255.676C624.935 260.548 625.644 265.045 626.854 269.152H620.152C620.242 266.053 620.258 262.799 620.258 259.416C620.258 256.33 620.244 253.351 620.174 250.499H603.159C603.087 253.351 603.073 256.33 603.073 259.416V269.152H620.152C620.15 269.232 620.148 269.312 620.145 269.391H626.926C626.902 269.312 626.878 269.232 626.854 269.152H633.528C633.566 269.232 633.604 269.312 633.642 269.391H640.461C640.386 269.312 640.311 269.232 640.237 269.152H633.528C630.787 263.394 629.255 257.702 629.255 253.155C629.57 253.326 629.924 253.522 630.314 253.738C634.362 255.982 642.249 260.353 650.913 260.353C658.617 260.353 663.156 256.607 663.612 250.95C663.27 250.747 662.896 250.594 662.498 250.499ZM547.664 269.293V270.14C547.664 279.885 549.779 289.166 559.463 293.787C561.571 287.667 562.84 281.804 563.076 277.016C558.642 274.606 555.214 270.866 553.54 266.14C551.824 266.782 550.125 267.808 548.242 268.945C548.051 269.06 547.859 269.176 547.664 269.293ZM532.441 275.026C539.33 274.157 543.893 271.563 547.664 269.293V259.416C547.664 245.648 547.386 234.007 542.931 226.315C543.832 225.373 544.708 224.413 545.558 223.438H540.903C541.66 224.323 542.333 225.283 542.931 226.315C538.946 230.482 534.465 234.316 529.469 237.721C526.988 233.68 523.712 230.235 519.668 227.609C513.388 232.238 505.492 234.949 497.224 234.949C487.891 234.949 481.081 232.847 476.168 229.293C468.82 235.079 464.447 243.849 463.292 253.92C453.934 253.193 445 251.086 436.849 247.907C447.327 232.646 454.034 225.984 459.395 223.438H427.232C431.19 227.396 433.707 232.72 433.707 240.204C433.707 242.223 433.372 244.276 432.736 246.183C425.092 242.749 418.244 238.354 412.521 233.278C413.57 229.252 415.553 226.048 418.164 223.438H403.483C406.04 226.923 409.077 230.224 412.521 233.278C411.98 235.357 411.688 237.655 411.688 240.204C411.688 247.327 415.861 254.882 422.698 254.882C427.597 254.882 431.128 251.003 432.736 246.183C434.083 246.788 435.455 247.363 436.849 247.907C433.407 252.921 429.557 258.863 425.215 265.892C425.681 270.256 426.593 274.456 428 278.5C421.102 283.133 414.991 288.847 409.938 295.395H437.594C433.221 290.081 430.074 284.459 428 278.5C438.339 271.557 450.445 267.045 463.402 265.799C465.771 283.416 478.119 296.833 499.105 296.833C516.237 296.833 527.573 287.892 532.441 275.026ZM521.153 275.067C523.199 275.235 525.304 275.327 527.478 275.327C529.259 275.327 530.908 275.219 532.441 275.026C534.239 270.274 535.155 264.987 535.155 259.416C535.155 251.332 533.225 243.842 529.469 237.721C526.578 239.691 523.516 241.516 520.277 243.18C515.235 240.614 508.25 239.124 499.105 239.124C480.48 239.124 470.814 245.302 468.277 254.174C466.603 254.134 464.941 254.048 463.292 253.92C463.086 255.714 462.983 257.549 462.983 259.416C462.983 261.592 463.123 263.725 463.402 265.799C465.129 265.634 466.871 265.526 468.625 265.478C471.623 273.839 481.245 279.709 499.105 279.709C508.792 279.709 516.055 277.982 521.153 275.067ZM521.153 275.067C527.642 271.357 530.621 265.722 530.621 259.273C530.621 252.541 527.375 246.794 520.277 243.18C506.831 250.088 490.348 254.202 470.564 254.202C469.8 254.202 469.037 254.193 468.277 254.174C467.814 255.792 467.588 257.498 467.588 259.273C467.588 261.448 467.927 263.53 468.625 265.478C469.323 265.458 470.023 265.449 470.724 265.449C479.974 265.449 488.258 267.732 496.86 270.103L496.861 270.103L496.861 270.103C504.421 272.186 512.227 274.337 521.153 275.067ZM681.209 350.506C644.995 417.62 654.951 480.762 706.425 508.529C757.474 536.073 815.928 509.849 852.142 442.735C888.356 375.622 878.176 312.368 827.138 284.824C775.665 257.045 717.422 283.392 681.209 350.506ZM801.575 290.104C847.41 314.829 776.079 527.044 727.648 500.91C688.984 480.057 760.964 268.188 801.575 290.104ZM774.583 254.202C719.294 254.202 674.622 212.249 674.622 127.101C674.622 65.8944 703.508 0 764.212 0C773.469 0 781.756 2.28355 790.362 4.65481C799.655 7.21554 809.319 9.87856 820.977 9.87856C831.171 9.87856 837.03 6.33808 841.733 3.49624C844.886 1.59113 847.519 0 850.59 0C860.223 0 857.012 19.7459 849.852 35.7888C844.672 47.3903 833.071 68.3668 815.305 68.3668C791.616 68.3668 776.036 59.7571 761.677 51.8224C749.407 45.0414 738.028 38.7535 723.243 38.7535C706.708 38.7535 703.005 59.4839 703.005 68.6129C703.005 119.449 735.091 196.452 794.082 196.452C828.875 196.452 839.492 168.07 839.492 147.586C839.492 133.277 837.758 124.875 830.598 124.875C826.568 124.875 823.319 129.54 819.233 135.404C812.319 145.331 803.009 158.695 783.465 158.695C755.329 158.695 741.512 140.426 741.512 118.218C741.512 110.566 746.2 101.929 752.856 101.929C754.302 101.929 755.98 102.955 758.107 104.254C761.792 106.506 766.825 109.582 774.336 109.582C781.885 109.582 787.582 107.266 793.775 104.75C801.148 101.754 809.223 98.4724 821.962 98.4724C835.789 98.4724 854.047 106.617 854.047 128.332V191.027C845.657 220.64 818.012 254.202 774.583 254.202ZM867.106 250.499H918.68C933.246 250.499 946.078 243.832 946.078 228.784C946.078 214.514 937.046 200.084 926.235 182.813C910.12 157.067 890.051 125.006 890.051 77.7419C890.051 66.3866 891.036 50.8472 899.18 50.8472C907.259 50.8472 915.329 75.0795 923.583 99.8634C924.415 102.363 925.25 104.869 926.086 107.355C928.54 114.722 933.015 127.542 937.774 141.179L937.775 141.18L937.778 141.188L937.779 141.192C943.542 157.703 949.722 175.41 953.238 186.082L953.797 187.798C964.427 220.458 974.204 250.499 1002.34 250.499H1067C1060.35 243.832 1058.37 235.441 1058.37 221.378V32.8241C1058.37 18.7614 1060.35 10.3708 1067 3.70306H1015.43C1000.86 3.70306 988.031 10.3708 988.031 25.418C988.031 39.6887 997.063 54.1181 1007.87 71.3899C1023.99 97.1352 1044.06 129.196 1044.06 176.46C1044.06 187.816 1043.06 203.366 1034.92 203.366C1026.85 203.366 1018.79 179.146 1010.54 154.372L1010.54 154.371L1010.54 154.37L1010.52 154.313L1010.47 154.163L1010.45 154.104C1009.64 151.682 1008.83 149.256 1008.02 146.847L984.821 77.7419C962.613 11.6014 957.926 3.70306 940.641 3.70306H867.106C873.762 10.3708 875.742 18.7614 875.742 32.8241V221.378C875.742 235.441 873.762 243.832 867.106 250.499ZM743.704 398.128C743.704 386.388 753.226 376.871 764.966 376.871C776.705 376.871 786.228 386.388 786.228 398.128C786.228 409.867 776.705 419.384 764.966 419.384C753.226 419.384 743.704 409.867 743.704 398.128ZM21.074 314.902C15.1667 295.241 9.76168 277.251 0 269.152H101.929C96.2461 275.574 93.0464 285.933 93.0464 296.058C93.0464 318.511 116.977 467.573 140.179 467.573C153.011 467.573 157.207 449.069 157.207 429.323C157.207 403.663 147.367 380.248 137.867 357.643C129.002 336.548 120.433 316.159 120.433 295.308C120.433 283.718 123.89 269.152 138.456 269.152H221.871C212.111 277.24 206.717 295.195 200.819 314.827C200.599 315.561 200.378 316.297 200.156 317.034C180.163 383.913 172.511 422.41 160.171 491.022C158.437 500.644 160.171 510.768 165.597 515.948H56.2731C61.6991 510.768 63.4219 500.644 61.6991 491.022C49.3592 422.41 41.707 383.913 21.7149 317.034C21.5005 316.322 21.2869 315.611 21.074 314.902ZM236.623 515.948H297.683C304.339 509.28 306.319 500.89 306.319 486.827V298.273C306.319 284.21 304.339 275.82 297.683 269.152H236.623C243.279 275.82 245.259 284.21 245.259 298.273V486.827C245.259 500.89 243.279 509.28 236.623 515.948ZM319.298 269.152H380.358C373.691 275.82 371.722 284.21 371.722 298.273V486.827C371.722 500.89 373.691 509.28 380.358 515.948H319.298C312.631 509.28 310.662 500.89 310.662 486.827V298.273C310.662 284.21 312.631 275.82 319.298 269.152ZM918.384 515.948H866.809C873.466 509.28 875.446 500.89 875.446 486.827V298.273C875.446 284.21 873.466 275.82 866.809 269.152H940.345C957.629 269.152 962.317 277.05 984.524 343.191L1007.73 412.296C1008.57 414.791 1009.4 417.304 1010.24 419.812L1010.24 419.819C1018.49 444.594 1026.56 468.815 1034.62 468.815C1042.77 468.815 1043.76 453.265 1043.76 441.909C1043.76 394.645 1023.69 362.584 1007.58 336.839C996.767 319.567 987.735 305.137 987.735 290.867C987.735 275.82 1000.57 269.152 1015.13 269.152H1066.71C1060.05 275.82 1058.07 284.21 1058.07 298.273V486.827C1058.07 500.89 1060.05 509.28 1066.71 515.948H1002.04C973.907 515.948 964.13 485.907 953.501 453.247L952.942 451.53C949.424 440.856 943.242 423.144 937.478 406.629C932.719 392.992 928.244 380.171 925.79 372.804C924.953 370.317 924.119 367.812 923.286 365.312C915.033 340.528 906.963 316.296 898.884 316.296C890.739 316.296 889.755 331.835 889.755 343.191C889.755 390.455 909.823 422.516 925.938 448.261C936.75 465.533 945.782 479.962 945.782 494.233C945.782 509.28 932.95 515.948 918.384 515.948Z" fill="#E8D8C3"/>
</svg>
